<svg xmlns="http://www.w3.org/2000/svg"
     viewBox="0 0 24 24" preserveAspectRatio="xMidYMid meet">
  <defs>
    <linearGradient id="brandGradV" x1="0" y1="0" x2="0" y2="1" gradientUnits="objectBoundingBox">
      <stop offset="0%" stop-color="#667eea"/>
      <stop offset="100%" stop-color="#764ba2"/>
    </linearGradient>
  </defs>

  <!-- scale about the center (12,12): translate(-center) → scale → translate(+center) -->
  <g transform="translate(12,12) scale(0.85) translate(-12,-12)">
    <path d="M24,23v1H2.5c-1.378,0-2.5-1.122-2.5-2.5V.024h1v21.476c0,.827.673,1.5,1.5,1.5h21.5Z
             M6,20.024v-8h-1v8h1Z M10,20.024h1v-10h-1v10Z M15,20.024h1v-7h-1v7Z
             M21,20.024v-11.024h-1v11.024h1Z
             M10,3.707l5,5L22.854.854l-.707-.707-7.146,7.146-5-5-5.854,5.854.707.707,5.146-5.146Z"
          fill="url(#brandGradV)"/>
  </g>
</svg>
