<?xml version='1.0' encoding='utf-8'?>
<svg xmlns="http://www.w3.org/2000/svg" viewBox="0 0 24 24"><defs><linearGradient id="brandGradV" x1="0" y1="0" x2="0" y2="1" gradientUnits="objectBoundingBox"><stop offset="0%" stop-color="#667eea" /><stop offset="100%" stop-color="#764ba2" /></linearGradient></defs>
<g id="_01_align_center" data-name="01 align center" transform="translate(12,12) scale(0.85) translate(-12,-12)"><path d="M21,24H16V22h5a1,1,0,0,0,1-1V16h2v5A3,3,0,0,1,21,24Z" fill="url(#brandGradV)" /><path d="M2,8H0V3A3,3,0,0,1,3,0H8V2H3A1,1,0,0,0,2,3Z" fill="url(#brandGradV)" /><path d="M8,24H3a3,3,0,0,1-3-3V16H2v5a1,1,0,0,0,1,1H8Z" fill="url(#brandGradV)" /><path d="M24,8H22V3a1,1,0,0,0-1-1H16V0h5a3,3,0,0,1,3,3Z" fill="url(#brandGradV)" /><path d="M18.293,19.707,9.707,11.121a1,1,0,0,0-1.414,0L4.707,14.707,3.293,13.293,6.879,9.707a3,3,0,0,1,4.242,0l8.586,8.586Z" fill="url(#brandGradV)" />
<path d="M16,10a3,3,0,1,1,3-3A3,3,0,0,1,16,10Zm0-4a1,1,0,1,0,1,1A1,1,0,0,0,16,6Z" fill="url(#brandGradV)" /></g></svg>